<?xml version="1.0"?>
<svg xmlns="http://www.w3.org/2000/svg" height="512px" viewBox="0 0 60 60" width="512px" class="hovered-paths"><g><g id="Page-1" fill="none" fill-rule="evenodd"><g id="058---Baby-Bath" fill-rule="nonzero" transform="translate(-1)"><path id="Shape" d="m59.99 32.02c-.03.39-.07.81-.12 1.25-1.12.66-2.26 1.26-3.42 1.84-10.26 5.078-17.607 5.823-30.36-1.69-5.188-3.073-8.87-7.577-23.88-4.27-.11-1.29-.17-2.38-.21-3.2-.04782115-1.0024836.63821227-1.8917861 1.62-2.1 13.28-2.624 17.1 1.259 21.87 4.28 12.609 7.805 20.648 7.726 31.59 1.89.6564542-.3314385 1.4414027-.2785364 2.0474473.1379892.6060446.4165255.9367293 1.1303815.8625527 1.8620108z" fill="#e8edfc" data-original="#E8EDFC" class="" style="fill:#7F00FF" data-old_color="#e8edfc"/><path id="Shape" d="m57.08 30.02c-.239.128-.47.237-.707.359.4459513.4237591.6732913 1.0284026.617 1.641-.03.39-.07.81-.12 1.25-1.12.66-2.26 1.26-3.42 1.84-4.366 2.161-8.206 3.527-12.159 3.816 5.062.342 9.7-1.114 15.159-3.816 1.16-.58 2.3-1.18 3.42-1.84.05-.44.09-.86.12-1.25.0741766-.7316293-.2565081-1.4454853-.8625527-1.8620108-.6060446-.4165256-1.3909931-.4694277-2.0474473-.1379892z" fill="#cad9fc" data-original="#CAD9FC"/><path id="Shape" d="m59.87 33.27c-.65 5.94-2.59 15.91-8.37 22.32-.8401687.9195794-1.9498189 1.5496647-3.17 1.8-11.3494235 2.1329717-22.9956397 2.1465335-34.35.04-1.3316822-.2733742-2.5267039-1.0017011-3.38-2.06-5.98-7.46-7.83-19.5-8.39-26.22 14.979-3.3 18.726 1.217 23.88 4.27 12.725 7.5 20.122 6.758 30.36 1.69 1.16-.58 2.3-1.18 3.42-1.84z" fill="#e8edfc" data-original="#E8EDFC" class="" style="fill:#7F00FF" data-old_color="#e8edfc"/><path id="Shape" d="m56.653 35.005c-.825 6.009-2.9 14.761-8.153 20.585-.8401687.9195794-1.9498189 1.5496647-3.17 1.8-5.2098604 1.0316807-10.5060496 1.5654182-15.817 1.594 6.3114283.1476646 12.6203458-.3867678 18.817-1.594 1.2201811-.2503353 2.3298313-.8804206 3.17-1.8 5.78-6.41 7.72-16.38 8.37-22.32-1.054.621-2.128 1.187-3.217 1.735z" fill="#cad9fc" data-original="#CAD9FC"/><path id="Shape" d="m55 30c.0023763.3772309-.0412795.7533428-.13 1.12-2.5523348 1.2521037-5.2542202 2.1728955-8.04 2.74h-.01c-1.9991481.3880179-4.0449947.4756489-6.07.26-5.23-.58-10.16-2.92-14.61-5.59-.22-.13-.44-.27-.65-.4-2.0253382-1.459343-4.1772612-2.7344327-6.43-3.81.2189167-1.2990002 1.0660975-2.4056669 2.2629289-2.9560492s2.5884045-.473243 3.7170711.2060492c-.0282405-.1886592-.041615-.3792456-.04-.57 0-2.209139 1.790861-4 4-4h.08c.4990496-3.4869495 3.5143994-6.0579884 7.0363954-5.9995847s6.4504426 2.7280059 6.8336046 6.2295847c.5023676-.1532606 1.0247749-.2307791 1.55-.23 1.9236808.0010983 3.7069907 1.007174 4.7027234 2.6530977.9957328 1.6459238 1.0591654 3.6924718.1672766 5.3969023.2079522-.0365058.4188928-.0532471.63-.05 1.3260824 0 2.597852.5267842 3.5355339 1.4644661s1.4644661 2.2094515 1.4644661 3.5355339z" fill="#a4c2f7" data-original="#A4C2F7" class="hovered-path active-path" style="fill:#7F00FF" data-old_color="#a4c2f7"/><path id="Shape" d="m39.95 17.23c.9749157-.2956604 2.0139897-.3067624 2.995-.032-.2201406-1.9674568-1.2662115-3.748597-2.8772907-4.8991499-1.6110792-1.1505528-3.6352816-1.5620495-5.5677093-1.1318501 2.9330719.6359469 5.1291036 3.0789818 5.45 6.063z" fill="#7facfa" data-original="#7FACFA"/><path id="Shape" d="m50 25c-.2111072-.0032471-.4220478.0134942-.63.05 1.0095514-1.9432665.7701099-4.3002807-.609605-6.0008292-1.379715-1.7005486-3.6367921-2.420584-5.746395-1.8331708 1.5879343.4560883 2.8867282 1.6018428 3.5373023 3.1204952s.5840052 3.2493135-.1813023 4.7135048c.2079522-.0365058.4188928-.0532471.63-.05 1.5224369.0008969 2.9615236.695381 3.9094934 1.8866695s1.3015328 2.7495798.9605066 4.2333305c-3.2671291 1.6564119-6.8143646 2.6893831-10.46 3.046 1.8089496.1356639 3.6278859.0327814 5.41-.306h.01c2.7857798-.5671045 5.4876652-1.4878963 8.04-2.74.3410262-1.4837507-.0125368-3.042042-.9605066-4.2333305s-2.3870565-1.8857726-3.9094934-1.8866695z" fill="#7facfa" data-original="#7FACFA"/><circle id="Oval" cx="50" cy="11" fill="#e8edfc" r="3" data-original="#E8EDFC" class="" style="fill:#7F00FF" data-old_color="#e8edfc"/><circle id="Oval" cx="24" cy="10" fill="#e8edfc" r="4" data-original="#E8EDFC" class="" style="fill:#7F00FF" data-old_color="#e8edfc"/><circle id="Oval" cx="15" cy="4" fill="#a4c2f7" r="3" data-original="#A4C2F7" class="hovered-path active-path" style="fill:#7F00FF" data-old_color="#a4c2f7"/><circle id="Oval" cx="14" cy="13" fill="#a4c2f7" r="2" data-original="#A4C2F7" class="hovered-path active-path" style="fill:#7F00FF" data-old_color="#a4c2f7"/><circle id="Oval" cx="42" cy="4" fill="#a4c2f7" r="3" data-original="#A4C2F7" class="hovered-path active-path" style="fill:#7F00FF" data-old_color="#a4c2f7"/><path id="Shape" d="m14 15c.5764723-.0012772 1.123914-.2531004 1.5-.69-.6667121-.7460895-.6667121-1.8739105 0-2.62-.6054237-.6984067-1.6105638-.8909779-2.4312521-.4657951-.8206883.4251829-1.2431217 1.3573526-1.02179 2.2547499.2213317.8973974 1.0287679 1.5262353 1.9530421 1.5210452z" fill="#fff" data-original="#FFF"/><path id="Shape" d="m16.5 1.416c-.4540847-.26964885-.9718941-.41325465-1.5-.416-1.6568542 0-3 1.34314575-3 3s1.3431458 3 3 3c.5281059-.00274535 1.0459153-.14635115 1.5-.416-.9273539-.5298262-1.4996803-1.5159639-1.4996803-2.584s.5723264-2.0541738 1.4996803-2.584z" fill="#fff" data-original="#FFF"/><path id="Shape" d="m32.47 58.98c-6.2007832.1379683-12.3987285-.3815999-18.49-1.55-1.3316822-.2733742-2.5267039-1.0017011-3.38-2.06-5.98-7.46-7.83-19.5-8.39-26.22-.11-1.29-.17-2.38-.21-3.2-.04782115-1.0024836.63821227-1.8917861 1.62-2.1 3.06024011-.6614212 6.19128107-.9368991 9.32-.82-2.1236364.1210846-4.23577896.3951284-6.32.82-.98178773.2082139-1.66782115 1.0975164-1.62 2.1.03.69.08 1.59.16 2.63.02.19.03.37.05.57.56 6.72 2.41 18.76 8.39 26.22.8532961 1.0582989 2.0483178 1.7866258 3.38 2.06 5.1043837.9939403 10.2898781 1.5128245 15.49 1.55z" fill="#fff" data-original="#FFF"/><path id="Shape" d="m5.672 48.869 1.839-.788c.9886541 2.3829724 2.28971771 4.6239359 3.869 6.664l-1.56 1.255c-1.69337332-2.182135-3.08832379-4.5802526-4.148-7.131z" fill="#fff" data-original="#FFF"/><g fill="#428dff"><path id="Shape" d="m8.382 53.063c-.55228475.0027614-1.00223858-.4427153-1.005-.995s.44271525-1.0022386.995-1.005h.01c.55228475 0 1 .4477153 1 1s-.44771525 1-1 1z" data-original="#428DFF" class="" data-old_color="#428DFF" style="fill:#7F00FF"/><path id="Shape" d="m59.661 29.312c-.9197821-.6249021-2.1112828-.6846892-3.089-.155-.13.07-.26.139-.4.208l-.222.109c-.2410888-2.7838239-2.3737169-5.0317741-5.141-5.419.4778153-1.9393019.0375229-3.9906078-1.1940441-5.5630079s-3.117658-2.4912984-5.1149559-2.4919921c-.2486485.0000576-.497078.0147497-.744.044-.902197-3.5486794-4.0984912-6.0318957-7.7600586-6.0288267s-6.8536944 2.4916399-7.7499414 6.0418267c-2.1140908.3263577-3.788315 1.9580135-4.169 4.063-2.3453145-.5253836-4.7301895.7045413-5.662 2.92-3.962-1.313-8.874-1.378-15-.17-1.46516395.3075112-2.48921887 1.6347542-2.415 3.13.041.829.1 1.932.213 3.234.133 1.587.313 3.191.537 4.766.66013151 5.1048289 1.97842282 10.1027059 3.922 14.869.10131128.250005.30090965.4473911.55202825.5459098.2511186.0985186.53168883.0895119.77597175-.0249098.4927916-.2296313.71954934-.8048753.516-1.309-1.87529005-4.6042936-3.14782426-9.4315879-3.786-14.362-.177-1.244-.318-2.505-.437-3.764 6.481-1.328 11.526-1.246 15.37.284 1.6510481.7217332 3.2255869 1.6071599 4.7 2.643.736.478 1.469.956 2.218 1.4 5.645 3.326 10.4 5.1 14.948 5.593.7465028.082514 1.4969511.1242427 2.248.125 5.274 0 10.056-1.979 14.12-3.991.627-.313 1.2-.608 1.732-.9-.8 5.639-2.814 14.2-7.871 19.81-.6990478.7637525-1.6223069 1.2861274-2.637 1.492-5.6139147 1.1145167-11.3278171 1.6470011-17.051 1.589-5.6653996.0518017-11.3216119-.4671507-16.883-1.549-1.1020575-.2252671-2.0917309-.8261403-2.8-1.7-.3435211-.4327151-.9727849-.5050211-1.40549998-.1615s-.50502111.9727849-.16150002 1.4055c.9995141 1.2406137 2.3995607 2.0947835 3.96 2.416 5.6953146 1.109185 11.4879194 1.6415418 17.29 1.589 5.8633071.0584165 11.7169873-.488481 17.468-1.632 1.4253256-.2934345 2.7208055-1.0315079 3.7-2.108 6.058-6.718 8-17.22 8.621-22.878.052-.451.093-.884.123-1.276.1101655-1.1039481-.3979152-2.1785715-1.321-2.794zm-36.661-7.312c.5378381.0010303 1.0651677.1490284 1.525.428.1387877.0812515.2945423.129176.455.14h.057.013c.5522847 0 1-.4477153 1-1-.0001287-.0791577-.009526-.1580281-.028-.235-.0137638-.1104815-.0211094-.2216681-.022-.333.0057318-.8078137.3346556-1.5797042.9133466-2.1433642.5786909-.56366 1.3589686-.8721606 2.1666534-.8566358.4981381-.0000755.9202607-.3667678.99-.86.4283444-2.988118 3.0129355-5.1908233 6.0311716-5.1400369 3.018236.0507864 5.5272573 2.3391995 5.8548284 5.3400369.0311828.2967769.1932759.5641206.442.729.2496314.1639067.5590005.2089391.845.123.4070688-.1263787.8307656-.1910962 1.257-.192 1.5565658.0010821 3.0020384.8065085 3.8219608 2.1296206s.8978468 2.9759976.2060392 4.3703794c-.2024144.3081495-.2188545.7026779-.0427785 1.0265991.1760759.3239212.5161018.5246831.8847785.5224009h.012c.0607881-.0007738.1213763-.0071339.181-.019.1444348-.0234119.2907208-.0334544.437-.03 2.209139 0 4 1.790861 4 4-.0077467.1448447-.024109.2890999-.049.432-2.3092337 1.1031335-4.7441315 1.9211464-7.251 2.436-.02 0-.041.006-.061.01-1.9020669.3713095-3.8491066.4549082-5.776.248-4.282-.475-8.8-2.208-14.212-5.457-.146-.086-.293-.178-.435-.268l-.188-.116c-.519-.329-1.034-.671-1.549-1.014-1.3381731-.9312991-2.7418198-1.7647979-4.2-2.494.4755847-1.078472 1.5423232-1.7751255 2.721-1.777zm33.007 12.214c-4.373 2.164-9.609 4.292-15.261 3.672-4.262-.458-8.758-2.151-14.146-5.326-.723-.428-1.433-.891-2.145-1.354-1.5858998-1.1089632-3.2794436-2.0554046-5.055-2.825-4.166-1.658-9.513-1.787-16.28-.429-.056-.793-.094-1.488-.121-2.041-.02875127-.510458.31536976-.9670314.814-1.08 6.252-1.236 11.118-1.1 14.872.416 1.6476347.7366162 3.2166067 1.6378621 4.683 2.69.528.35 1.056.7 1.6 1.043l.188.118c.158.1.318.2.473.29 5.665 3.4 10.437 5.218 15.016 5.726 2.1056067.2273322 4.2333443.1393646 6.313-.261.0194726-.0020209.0388306-.0050247.058-.009 2.8711989-.5800226 5.6555315-1.528188 8.284-2.821.6-.283 1.182-.576 1.768-.869.155-.077.3-.155.468-.244.3212524-.1695102.7101003-.1463874 1.009.06.3177624.2161537.4904211.5899272.449.972-.017.224-.045.476-.069.719-.862.493-1.799.994-2.918 1.553z" data-original="#428DFF" class="" data-old_color="#428DFF" style="fill:#7F00FF"/><path id="Shape" d="m50 15c2.209139 0 4-1.790861 4-4s-1.790861-4-4-4-4 1.790861-4 4 1.790861 4 4 4zm0-6c1.1045695 0 2 .8954305 2 2s-.8954305 2-2 2-2-.8954305-2-2 .8954305-2 2-2z" data-original="#428DFF" class="" data-old_color="#428DFF" style="fill:#7F00FF"/><path id="Shape" d="m24 15c2.7614237 0 5-2.2385763 5-5 0-2.76142375-2.2385763-5-5-5s-5 2.23857625-5 5c.0033061 2.7600532 2.2399468 4.9966939 5 5zm0-8c1.6568542 0 3 1.34314575 3 3 0 1.6568542-1.3431458 3-3 3s-3-1.3431458-3-3c0-1.65685425 1.3431458-3 3-3z" data-original="#428DFF" class="" data-old_color="#428DFF" style="fill:#7F00FF"/><path id="Shape" d="m19 4c0-2.209139-1.790861-4-4-4s-4 1.790861-4 4 1.790861 4 4 4 4-1.790861 4-4zm-4 2c-1.1045695 0-2-.8954305-2-2s.8954305-2 2-2 2 .8954305 2 2c0 .53043298-.2107137 1.03914081-.5857864 1.41421356-.3750728.37507276-.8837806.58578644-1.4142136.58578644z" data-original="#428DFF" class="" data-old_color="#428DFF" style="fill:#7F00FF"/><path id="Shape" d="m11 13c0 1.6568542 1.3431458 3 3 3s3-1.3431458 3-3-1.3431458-3-3-3-3 1.3431458-3 3zm4 0c0 .5522847-.4477153 1-1 1s-1-.4477153-1-1 .4477153-1 1-1 1 .4477153 1 1z" data-original="#428DFF" class="" data-old_color="#428DFF" style="fill:#7F00FF"/><path id="Shape" d="m42 0c-2.209139 0-4 1.790861-4 4s1.790861 4 4 4 4-1.790861 4-4c0-1.06086596-.4214274-2.07828161-1.1715729-2.82842712-.7501455-.75014552-1.7675611-1.17157288-2.8284271-1.17157288zm0 6c-1.1045695 0-2-.8954305-2-2s.8954305-2 2-2 2 .8954305 2 2c0 .53043298-.2107137 1.03914081-.5857864 1.41421356-.3750728.37507276-.8837806.58578644-1.4142136.58578644z" data-original="#428DFF" class="" data-old_color="#428DFF" style="fill:#7F00FF"/><path id="Shape" d="m7.69 40.274c1.115 3.905 2.295 6.7 3.51 8.326.3313709.4418278.9581722.5313708 1.4.2.4418278-.3313709.5313708-.9581722.2-1.4-1.4693116-2.3692328-2.5452391-4.9607794-3.186-7.674-.09789077-.3436895-.37170174-.6090476-.71829096-.6961165-.34658922-.0870688-.71330156.0173794-.96200001.2740001-.24869845.2566206-.34159981.6264269-.24370903.9701164z" data-original="#428DFF" class="" data-old_color="#428DFF" style="fill:#7F00FF"/><path id="Shape" d="m7.983 32.82c-.11684499-.5244026-.62717522-.8627619-1.15569824-.7662513-.52852301.0965105-.88633396.5933961-.81030176 1.1252513.008.051.231 1.265.638 3.045.10433141.4539301.50823452.7757256.974.776.07569211-.0000164.15115044-.0084006.225-.025.2586729-.0595235.48306859-.2194458.62374784-.4445326.14067924-.2250868.18609895-.4968691.12625216-.7554674-.396-1.73-.618-2.942-.621-2.955z" data-original="#428DFF" class="" data-old_color="#428DFF" style="fill:#7F00FF"/></g></g></g></g> </svg>
