<svg height="512" viewBox="0 0 42 59" width="512" xmlns="http://www.w3.org/2000/svg"><g id="Page-1" fill="none" fill-rule="evenodd"><g id="028---Vet-Location" fill="rgb(0,0,0)" fill-rule="nonzero"><path id="Shape" d="m29 57h-6.776c4.476-3.792 19.776-18.069 19.776-36-.0000002-11.59797962-9.4020204-20.99999969-21-20.99999969-11.59797962 0-20.99999983 9.40202007-21 20.99999969 0 17.931 15.3 32.208 19.776 36h-6.776c-.5522847 0-1 .4477153-1 1s.4477153 1 1 1h16c.5522847 0 1-.4477153 1-1s-.4477153-1-1-1zm-26-36c0-9.9411255 8.0588745-18 18-18s18 8.0588745 18 18-8.0588745 18-18 18c-9.9363282-.0115721-17.98842786-8.0636718-18-18z"/><path id="Shape" d="m10.282 20c-.1108373-.0001141-.2210644.0164031-.327.049-.85504532.4425765-1.22161023 1.4714923-.839 2.355.15143102.5146771.47518887.9616535.917 1.266.3208678.2298416.728057.3032752 1.109.2.855841-.4418815 1.2226661-1.4715276.839-2.355-.1941186-.8104102-.8717309-1.4146378-1.699-1.515z"/><path id="Shape" d="m23.473 30.57c.5442102.2586337 1.1349824.4048813 1.737.43.6576531.0777003 1.2926944-.2682849 1.584-.863.4017973-1.2006886.1498752-2.5239425-.665-3.493-.5526855-.7093522-1.0381145-1.4686301-1.45-2.268-1.17-2.1-2.001-3.376-3.679-3.376s-2.509 1.276-3.679 3.376c-.4118855.7993699-.8973145 1.5586478-1.45 2.268-.8148752.9690575-1.0667973 2.2923114-.665 3.493.2913056.5947151.9263469.9407003 1.584.863.6020176-.0251187 1.1927898-.1713663 1.737-.43.7773763-.355072 1.6186302-.548972 2.473-.57.8543698.021028 1.6956237.214928 2.473.57z"/><path id="Shape" d="m30.858 23.87c.380943.1032752.7881322.0298416 1.109-.2.4418111-.3043465.765569-.7513229.917-1.266.3826102-.8835077.0160453-1.9124235-.839-2.355-.769-.241-1.7.429-2.026 1.465-.3842942.8837413-.0173791 1.9140774.839 2.356z"/><path id="Shape" d="m25.523 16.931c1.074.188 2.2-1.013 2.482-2.615.1500703-.7830729.049288-1.5935312-.288-2.316-.217925-.4906733-.6493634-.8538928-1.17-.985-.0730886-.0114321-.1470369-.0164512-.221-.015-1 0-2 1.142-2.263 2.634-.1496789.7816332-.0481661 1.590585.29 2.311.2169401.4916124.6487361.8555021 1.17.986z"/><path id="Shape" d="m16.513 16.931c1.067-.185 1.735-1.7 1.458-3.3-.259-1.489-1.263-2.631-2.263-2.631-.0737468-.0000865-.14736.0062711-.22.019-.5208469.1306963-.9524441.4940494-1.17.985-.3373086.7210299-.4384456 1.5301259-.289 2.312.279 1.602 1.424 2.802 2.484 2.615z"/><path id="Shape" d="m37 21c0-8.836556-7.163444-16-16-16s-16 7.163444-16 16 7.163444 16 16 16c8.8322157-.0104696 15.9895304-7.1677843 16-16zm-4.361-2.86c1.928246.7562809 2.8890907 2.9231973 2.155 4.86-.2880274.962895-.9035088 1.7948562-1.74 2.352-.5506123.3671207-1.1962492.5658851-1.858.572-.3157236-.0000466-.6296183-.0479231-.931-.142-1.9279598-.7554849-2.8895656-2.9212156-2.157-4.858.4927767-2.0124537 2.5130544-3.2537808 4.531-2.784zm-10.546-4.847c.47-2.717 2.613-4.624 4.795-4.245 1.1467774.23115451 2.1159453.9925376 2.612 2.052.53631 1.1056172.70385 2.3541053.478 3.562-.431 2.486-2.269 4.292-4.244 4.292-.184343.00016-.368357-.0155649-.55-.047-1.1453063-.2305308-2.1137866-.9898104-2.611-2.047-.5388903-1.1066056-.707193-2.3573049-.48-3.567zm-9.556-2.2c.4964241-1.0570005 1.464237-1.81633857 2.609-2.047 2.177-.378 4.325 1.528 4.795 4.245s-.915 5.232-3.087 5.609c-.1819847.0313942-.3663272.0471185-.551.047-1.976 0-3.814-1.806-4.244-4.292-.2252377-1.205618-.057692-2.4516955.478-3.555zm-.8 14.685c-.3013817.0940769-.6152764.1419534-.931.142-.6617508-.0061149-1.30738766-.2048793-1.858-.572-.83649587-.5558026-1.45263259-1.3862785-1.742-2.348-.73278234-1.9362274.22782785-4.1017236 2.155-4.858 2.0170193-.4699669 4.0368738.7697628 4.531 2.781.7319116 1.9364966-.2295769 4.1015174-2.157 4.857zm5.053 7.222c-1.4407028.0891244-2.7892952-.7120982-3.4-2.02-.7266761-1.9080777-.3635542-4.0600243.949-5.624.4692538-.6136086.8822573-1.268256 1.234-1.956 1.093-1.958 2.452-4.4 5.427-4.4s4.334 2.442 5.427 4.4c.3509954.6862489.7629876 1.3395461 1.231 1.952 1.3125542 1.5639757 1.6756761 3.7159223.949 5.624-.6090809 1.3083993-1.9564132 2.1111667-3.397 2.024-.8543698-.021028-1.6956237-.214928-2.473-.57-.5442102-.2586337-1.1349824-.4048813-1.737-.43-.6020176.0251187-1.1927898.1713663-1.737.43-.7773763.355072-1.6186302.548972-2.473.57z"/></g></g></svg>